<?xml version="1.0" encoding="utf-8"?>
<!-- Generator: Adobe Illustrator 25.2.1, SVG Export Plug-In . SVG Version: 6.00 Build 0)  -->
<svg version="1.1" id="Camada_1" xmlns="http://www.w3.org/2000/svg" xmlns:xlink="http://www.w3.org/1999/xlink" x="0px" y="0px"
	 viewBox="0 0 2139 1358" style="enable-background:new 0 0 2139 1358;" xml:space="preserve">
<style type="text/css">
	.st0{fill:#CC0000;}
	.st1{fill:none;stroke:#CC0000;stroke-width:2;stroke-miterlimit:10;}
</style>
<g transform="translate(0.000000,1358.000000) scale(0.100000,-0.100000)">
	<path class="st0" d="M15750.2,6870.9c-29-5-65,2-143,26c-91,28-119,32-224,32c-115,1-162-3-195-17c-8-3-34-12-57-20
		c-150-52-328-211-402-357c-69-137-69-247,0-317c49-50,96-43,172,26c40,38,35,65-18,103c-42,30-85,96-85,130c1,61,115,206,196,247
		c46,24,154,45,178,36c20-8,20-27,1-184c-67-547-249-1100-522-1585c-117-207-341-532-476-689l-34-39l-17,109
		c-174,1087-462,2026-874,2849c-144,290-312,583-454,793c-27,40-48,77-46,81c2,5,44,39,93,77c684,517,1247,1102,1622,1684
		c263,408,445,832,533,1240c20,91,91,572,86,577c-1.9,0-69.6-73.6-152-164c-82-92-207-228-279-302c-947-979-2086-1552-3410-1716
		c-320-39-489-49-845-48c-524,0-995,45-1556,148c-197,37-235,46-229,56c9,14,272,210,377,280c304,205,668,386,1073,533
		c90,32,62,33-84,0c-575-127-1114-356-1585-673c-58-39-113-71-121-71c-41,0-534,134-792,216c-205,64-525,173-709,240
		c-103,38-159,54-162,46c-2-6-23-53-48-102c-24-50-44-93-44-95c0-2,75-45,168-96c305-168,661-381,945-566l128-83l-123-133
		c-309-333-540-667-737-1067c-400-812-529-1684-380-2580c24-148,104-464,152-605c170-499,422-951,753-1349l103-125l-101-133
		c-148-194-539-676-777-957c-56-67-81-79,329,167c358,215,628,385,793,499c65,44,112,71,120,67c6-4,48-38,92-75
		c111-92,291-222,432-311c588-373,1249-596,1963-663c244-24,715-16,950,14c973,126,1892,559,2556,1203c55,54,103,98,107,98
		c3,0,70-106,148-235c78.3-126.8,143.8-231,146-231c2,2-8,136-22,297c-14,162-27,326-31,364l-5,70l46,55c230,273,508,741,653,1100
		c239,593,342,1186,311,1798c-5,112-8,207-5,209c3,3,60-9,128-27c209-55,247-62,283-56c51,10,101,58,125,122
		C15797.2,6871.9,15796.2,6878.9,15750.2,6870.9z M7641.2,9641.9c10-3,102-29,205-57c103-28,189-53,191-55c7-7-84-83-99-83
		c-8,0-82,45-165,100C7691.2,9602.9,7631.2,9644.9,7641.2,9641.9z M7684.2,3217.9c-18-16-18-16-6,6c6,13,14,21,18,18
		C7699.2,3237.9,7694.2,3227.9,7684.2,3217.9z M7940.2,3996.9l-65-94l-39,44c-153,176-342,463-459,699c-279,561-402,1129-386,1770
		c24,907,348,1778,947,2539c52,67,99,121,104,121s59-37,120-82c168-125,431-335,568-455c342-299,699-699,874-980l45-71l-54-164
		c-118-356-270-752-432-1123c-113-260-413-866-555-1120C8410.2,4726.9,8114.2,4245.9,7940.2,3996.9z M13585.2,3713.9
		c-634-526-1382-870-2172-1002c-253-42-357-50-680-51c-204,0-360,5-430,13c-571,68-1073,229-1521,488c-140,81-377,240-395,265
		c-2,4,79,73,181,154c863,690,1671,1506,2384,2408c59,75,114,137,121,137c6,0,113-51,236-113c399-201,716-414,1084-731
		c405-347,873-876,1228-1387l67-96L13585.2,3713.9z M13899.2,4001.9c-22-22-42-38-44-36c-2,3-50,70-108,150
		c-756,1051-1609,1792-2531,2199c-76,34-143,61-149,61c-7,0-26,11-44,24l-31,24l-70-91c-629-831-1455-1698-2259-2373
		c-114-96-437-352-462-367c-12-8-153,117-153,135c0,5,62,103,138,216c652,974,1167,1991,1540,3042c117,328,175,517,168,544
		c-9,37-215,339-317,467c-328,408-791,837-1307,1209l-74,53l190,190l149-32c898-191,1795-253,2563-176c1349,136,2495,652,3480,1567
		c74,69,136,124,138,123c1-1-18-60-42-132c-305-889-1056-1788-2158-2581c-49-35-88-65-88-68c0-3,47-73,104-157
		c668-982,1102-2122,1341-3521c19-111,41-252,50-315l17-114L13899.2,4001.9z"/>
	<path class="st0" d="M10938.2,11579.9c-158-19-346-97-467-194c-159-127-285-343-323-550c-15-82-14-311,2-360c3-8,17-53,31-100
		c77-247,274-462,516-560c202-83,458-82,659,2c423,176,648,652,522,1105c-87,312-332,553-643,633
		C11160.2,11574.9,11003.2,11587.9,10938.2,11579.9z"/>
</g>
<path class="st0" d="M1191.7,1038.5l35-17.1c0,0-1.3-2.3,3.7-4.7l31-15.2c0,0,2.4-1.8,4.2,0.6l22.8-11.2c0,0,3.5-1.3,6,1.9l5.9-3
	l3.3,0.4l2,3.9c0,0,0,0.8-0.8,0.7l-1.3-2.8l-1.8-0.4l-5.3,2.6c0,0,11.3,12,11.4,12.9c0,0,6.1,11.2,2.9,12l-13.1,6.5
	c0,0-2.5-9.2-11.1-5.7c0,0-7.8,3.5-2.3,12.5l-41.2,20.3c0,0-2.1-9-10.9-6.2c0,0-8.3,4.2-2.6,12.6l-22.5,9.4c0,0-2,1.6-4-2.9
	C1202.8,1066.1,1188.3,1041.4,1191.7,1038.5z"/>
<circle class="st1" cx="1234.7" cy="1054.2" r="5.2"/>
<circle class="st1" cx="1290" cy="1027.6" r="5.2"/>
</svg>
