<?xml version="1.0" standalone="no"?>
<!DOCTYPE svg PUBLIC "-//W3C//DTD SVG 20010904//EN"
 "http://www.w3.org/TR/2001/REC-SVG-20010904/DTD/svg10.dtd">
<svg version="1.0" xmlns="http://www.w3.org/2000/svg"
 width="2139.000000pt" height="1358.000000pt" viewBox="0 0 2139.000000 1358.000000"
 preserveAspectRatio="xMidYMid meet">

<g transform="translate(0.000000,1358.000000) scale(0.100000,-0.100000)"
fill="#000000" stroke="none">
<path d="M11544 12243 c-82 -92 -207 -228 -279 -302 -947 -979 -2086 -1552
-3410 -1716 -320 -39 -489 -49 -845 -48 -524 0 -995 45 -1556 148 -197 37
-235 46 -229 56 9 14 272 210 377 280 304 205 668 386 1073 533 90 32 62 33
-84 0 -575 -127 -1114 -356 -1585 -673 -58 -39 -113 -71 -121 -71 -41 0 -534
134 -792 216 -205 64 -525 173 -709 240 -103 38 -159 54 -162 46 -2 -6 -23
-53 -48 -102 -24 -50 -44 -93 -44 -95 0 -2 75 -45 168 -96 305 -168 661 -381
945 -566 l128 -83 -123 -133 c-309 -333 -540 -667 -737 -1067 -400 -812 -529
-1684 -380 -2580 24 -148 104 -464 152 -605 170 -499 422 -951 753 -1349 l103
-125 -101 -133 c-148 -194 -539 -676 -777 -957 -56 -67 -81 -79 329 167 358
215 628 385 793 499 65 44 112 71 120 67 6 -4 48 -38 92 -75 111 -92 291 -222
432 -311 588 -373 1249 -596 1963 -663 244 -24 715 -16 950 14 973 126 1892
559 2556 1203 55 54 103 98 107 98 3 0 70 -106 148 -235 79 -128 145 -233 146
-231 2 2 -8 136 -22 297 -14 162 -27 326 -31 364 l-5 70 46 55 c230 273 508
741 653 1100 239 593 342 1186 311 1798 -5 112 -8 207 -5 209 3 3 60 -9 128
-27 209 -55 247 -62 283 -56 51 10 101 58 125 122 29 80 28 87 -18 79 -29 -5
-65 2 -143 26 -91 28 -119 32 -224 32 -115 1 -162 -3 -195 -17 -8 -3 -34 -12
-57 -20 -150 -52 -328 -211 -402 -357 -69 -137 -69 -247 0 -317 49 -50 96 -43
172 26 40 38 35 65 -18 103 -42 30 -85 96 -85 130 1 61 115 206 196 247 46 24
154 45 178 36 20 -8 20 -27 1 -184 -67 -547 -249 -1100 -522 -1585 -117 -207
-341 -532 -476 -689 l-34 -39 -17 109 c-174 1087 -462 2026 -874 2849 -144
290 -312 583 -454 793 -27 40 -48 77 -46 81 2 5 44 39 93 77 684 517 1247
1102 1622 1684 263 408 445 832 533 1240 20 91 91 572 86 577 -1 1 -69 -73
-152 -164z m-258 -710 c-305 -889 -1056 -1788 -2158 -2581 -49 -35 -88 -65
-88 -68 0 -3 47 -73 104 -157 668 -982 1102 -2122 1341 -3521 19 -111 41 -252
50 -315 l17 -114 -41 -41 c-22 -22 -42 -38 -44 -36 -2 3 -50 70 -108 150 -756
1051 -1609 1792 -2531 2199 -76 34 -143 61 -149 61 -7 0 -26 11 -44 24 l-31
24 -70 -91 c-629 -831 -1455 -1698 -2259 -2373 -114 -96 -437 -352 -462 -367
-12 -8 -153 117 -153 135 0 5 62 103 138 216 652 974 1167 1991 1540 3042 117
328 175 517 168 544 -9 37 -215 339 -317 467 -328 408 -791 837 -1307 1209
l-74 53 95 95 95 95 149 -32 c898 -191 1795 -253 2563 -176 1349 136 2495 652
3480 1567 74 69 136 124 138 123 1 -1 -18 -60 -42 -132z m-6828 -1214 c103
-28 189 -53 191 -55 7 -7 -84 -83 -99 -83 -8 0 -82 45 -165 100 -82 56 -142
98 -132 95 10 -3 102 -29 205 -57z m316 -591 c168 -125 431 -335 568 -455 342
-299 699 -699 874 -980 l45 -71 -54 -164 c-118 -356 -270 -752 -432 -1123
-113 -260 -413 -866 -555 -1120 -198 -354 -494 -835 -668 -1084 l-65 -94 -39
44 c-153 176 -342 463 -459 699 -279 561 -402 1129 -386 1770 24 907 348 1778
947 2539 52 67 99 121 104 121 5 0 59 -37 120 -82z m3147 -2981 c399 -201 716
-414 1084 -731 405 -347 873 -876 1228 -1387 l67 -96 -103 -85 c-634 -526
-1382 -870 -2172 -1002 -253 -42 -357 -50 -680 -51 -204 0 -360 5 -430 13
-571 68 -1073 229 -1521 488 -140 81 -377 240 -395 265 -2 4 79 73 181 154
863 690 1671 1506 2384 2408 59 75 114 137 121 137 6 0 113 -51 236 -113z
m-3625 -2795 c-18 -16 -18 -16 -6 6 6 13 14 21 18 18 3 -4 -2 -14 -12 -24z"/>
<path d="M7550 12314 c-158 -19 -346 -97 -467 -194 -159 -127 -285 -343 -323
-550 -15 -82 -14 -311 2 -360 3 -8 17 -53 31 -100 77 -247 274 -462 516 -560
202 -83 458 -82 659 2 423 176 648 652 522 1105 -87 312 -332 553 -643 633
-75 19 -232 32 -297 24z"/>
<path d="M13295 11417 c-532 -363 -979 -785 -1631 -1542 l-168 -195 -188 0
-188 0 11 27 c22 57 63 85 169 114 l65 18 -70 0 c-93 0 -211 -21 -265 -49 -63
-32 -142 -110 -228 -225 -159 -213 -186 -345 -74 -374 20 -5 92 -13 160 -17
208 -11 209 19 -5 -259 -102 -132 -193 -251 -202 -264 -17 -22 -19 -23 -48 -8
-64 34 -165 -26 -287 -169 -172 -201 -316 -465 -316 -579 0 -109 103 -110 227
-2 77 66 114 107 369 412 345 411 445 533 569 689 l117 150 444 0 c292 1 443
-2 440 -9 -2 -5 -50 -116 -106 -245 -176 -404 -214 -522 -209 -646 10 -206
155 -317 315 -239 31 15 83 50 117 78 92 76 437 398 452 421 7 12 15 47 19 78
l6 57 -122 -83 c-169 -115 -237 -150 -277 -141 -17 4 -38 16 -46 28 -37 53 -9
155 143 512 l89 210 156 15 156 15 141 213 c77 118 147 227 155 242 18 35 19
74 3 87 -7 6 -85 14 -173 17 -88 4 -161 9 -163 11 -5 5 147 339 352 773 96
202 193 412 216 466 74 175 85 289 39 410 -35 95 -29 95 -164 3z m-346 -729
c-196 -391 -325 -655 -415 -845 l-43 -93 -98 0 c-54 0 -210 -3 -347 -7 l-250
-6 84 102 c235 287 754 826 1000 1037 110 95 258 214 266 214 2 0 -87 -181
-197 -402z"/>
<path d="M14315 10691 c-115 -29 -205 -130 -318 -357 l-46 -92 -153 -5 c-100
-3 -171 -10 -204 -21 -110 -35 -187 -125 -288 -338 -53 -110 -87 -221 -72
-235 4 -4 30 1 59 12 40 15 85 20 195 23 78 2 142 1 142 -2 0 -12 -176 -307
-258 -431 -95 -146 -151 -221 -229 -312 l-54 -62 3 -85 3 -85 94 105 c52 57
96 102 98 100 2 -1 -13 -54 -33 -117 -19 -63 -51 -175 -71 -249 -62 -235 -47
-410 43 -510 45 -50 81 -63 152 -58 101 7 218 78 376 228 91 87 250 265 356
399 41 52 75 90 76 85 2 -5 10 -60 19 -122 64 -456 248 -613 515 -441 112 72
274 247 418 452 l40 57 6 -57 c12 -96 46 -213 91 -310 89 -191 213 -265 338
-202 57 29 228 204 361 369 60 74 115 141 121 148 10 11 23 7 74 -19 112 -59
216 -39 349 66 45 36 84 65 86 65 2 0 6 -26 9 -57 15 -141 105 -369 185 -470
54 -67 91 -87 136 -74 101 27 207 143 546 593 69 91 126 165 127 164 2 -1 -11
-49 -27 -107 -100 -350 -112 -611 -31 -698 57 -60 151 -48 277 35 114 76 322
300 527 567 l67 87 0 77 0 78 -77 -76 c-174 -170 -307 -259 -388 -259 -59 0
-101 26 -126 76 -18 39 -21 58 -17 142 4 115 15 141 162 392 53 91 103 187
111 214 17 57 12 88 -40 232 -19 54 -34 99 -32 100 1 1 25 13 54 28 59 29 73
49 73 100 0 72 -66 193 -122 222 -109 56 -506 -122 -788 -355 -243 -200 -496
-484 -571 -639 -17 -35 -36 -92 -42 -127 -12 -62 -15 -66 -77 -120 -72 -61
-136 -91 -174 -81 -24 6 -89 87 -89 110 0 6 23 50 51 96 166 277 281 621 257
775 -7 51 -48 105 -80 105 -77 0 -240 -206 -375 -474 -79 -156 -129 -303 -137
-399 -6 -70 -7 -71 -81 -161 -97 -118 -255 -280 -309 -317 -52 -36 -95 -38
-128 -5 -38 38 -41 99 -14 271 l23 150 65 70 c230 250 439 644 407 768 -9 37
-95 77 -163 77 -100 0 -166 -55 -289 -240 -168 -252 -267 -462 -305 -649 -13
-63 -15 -66 -109 -153 -233 -216 -363 -275 -485 -219 -85 38 -120 110 -113
230 7 111 29 148 233 396 108 130 128 161 193 291 125 250 131 372 22 405 -90
27 -208 -25 -319 -140 -101 -106 -255 -349 -340 -538 -41 -90 -81 -224 -81
-268 0 -26 -193 -218 -325 -324 -226 -182 -345 -156 -345 73 0 201 72 422 271
834 l79 164 97 -8 c54 -5 120 -9 147 -9 l48 0 70 115 c70 117 232 430 225 436
-2 2 -48 11 -102 19 -54 8 -100 16 -102 19 -7 7 20 54 123 218 101 161 112
196 72 222 -29 18 -104 27 -143 17z m3474 -1227 c-133 -221 -331 -518 -412
-619 -137 -170 -355 -355 -417 -355 -59 0 -96 88 -87 210 16 232 180 421 602
695 135 88 407 247 412 241 2 -2 -42 -80 -98 -172z"/>
<path d="M15163 10619 c-64 -19 -162 -145 -204 -265 -42 -117 -24 -217 50
-268 82 -57 174 -20 255 103 63 94 90 169 90 251 1 133 -83 212 -191 179z"/>
<path d="M12359 7253 l-126 -25 -46 -141 c-136 -422 -110 -657 74 -657 90 0
168 42 289 156 63 60 68 63 74 42 3 -13 6 -32 6 -44 0 -11 11 -43 25 -71 61
-123 186 -109 371 40 102 83 241 229 290 305 36 56 40 59 116 83 43 13 78 24
78 22 0 -1 -25 -48 -55 -105 -83 -158 -103 -262 -66 -344 63 -139 207 -107
448 101 l41 36 7 -43 c10 -64 50 -141 84 -161 16 -9 46 -17 68 -17 110 0 360
231 560 517 l66 96 22 -49 c12 -27 40 -78 62 -114 80 -132 90 -189 44 -261
-35 -55 -86 -89 -134 -89 -44 0 -68 23 -97 95 -31 77 -45 78 -112 5 -32 -34
-60 -71 -64 -82 -9 -28 23 -68 77 -96 37 -20 55 -23 119 -19 108 5 174 39 276
141 157 158 178 280 78 450 -52 86 -62 135 -44 201 7 25 11 48 8 50 -5 5 -165
-20 -199 -31 -9 -2 -40 -51 -68 -107 -61 -123 -177 -279 -299 -404 -72 -73
-98 -93 -128 -99 -109 -20 -107 69 11 440 35 110 62 202 61 203 -1 2 -59 -9
-129 -24 l-126 -26 -47 -141 c-26 -78 -54 -179 -64 -226 l-17 -85 -81 -72
c-83 -74 -114 -90 -157 -79 -82 21 -64 134 86 535 22 57 39 108 39 112 0 14
-68 11 -80 -3 -6 -7 -30 -41 -53 -74 -63 -92 -159 -164 -218 -164 -17 0 -17 2
2 57 26 77 27 147 3 174 -26 29 -100 22 -146 -13 -43 -33 -88 -125 -95 -194
-6 -54 -5 -55 36 -94 l42 -40 -40 -52 c-48 -65 -182 -197 -235 -232 -78 -52
-136 -25 -136 64 0 54 2 63 87 347 37 123 65 224 62 227 -2 2 -60 -7 -129 -21
l-125 -25 -68 -221 c-74 -242 -96 -284 -181 -365 -59 -56 -95 -70 -132 -53
-57 26 -55 110 6 332 22 79 55 191 75 248 19 58 34 105 32 106 -1 1 -59 -9
-128 -22z"/>
<path d="M15441 7259 c-52 -10 -97 -22 -101 -26 -16 -18 -93 -211 -116 -292
-32 -110 -50 -316 -38 -427 l9 -81 101 24 c114 27 114 27 114 132 0 75 27 218
50 265 23 49 179 204 230 231 50 26 56 12 41 -96 -7 -50 -37 -194 -67 -321
-30 -127 -53 -233 -51 -235 5 -5 231 38 238 45 4 4 25 86 48 182 23 96 47 189
54 205 15 39 169 199 207 215 68 28 76 -12 30 -159 -72 -235 -85 -342 -51
-418 31 -66 99 -89 193 -63 50 14 141 77 226 155 38 36 73 65 76 65 3 0 6 -8
6 -17 0 -35 48 -119 87 -154 22 -20 57 -42 78 -49 53 -17 153 -8 212 21 47 23
132 99 169 151 l19 28 49 -25 c63 -32 117 -32 181 0 79 38 85 46 85 104 l0 53
-47 -42 c-82 -73 -148 -86 -204 -41 l-23 18 27 89 c15 49 34 116 42 149 19 70
31 230 21 269 -14 57 -144 83 -278 55 -207 -43 -384 -226 -418 -434 -11 -65
-16 -74 -69 -128 -108 -112 -181 -145 -201 -92 -12 32 -2 79 51 244 45 140 66
257 55 315 -11 58 -62 106 -114 106 -76 0 -142 -42 -284 -178 l-88 -85 1 84
c1 96 -8 128 -47 158 -71 56 -179 6 -347 -160 -105 -105 -118 -114 -112 -86 6
29 63 207 80 250 9 21 -1 21 -124 -4z m1749 -45 c0 -4 -18 -27 -41 -51 -63
-69 -83 -122 -83 -223 0 -72 4 -94 28 -147 16 -35 35 -68 42 -74 22 -18 17
-33 -27 -83 -73 -83 -133 -95 -183 -36 -79 94 -50 390 52 526 44 58 108 94
169 94 24 0 43 -3 43 -6z"/>
<path d="M11070 2405 c-40 -8 -163 -13 -322 -14 -244 -1 -259 -2 -278 -21 -35
-35 -25 -67 27 -93 25 -14 33 -26 42 -66 27 -129 21 -505 -9 -562 -6 -10 -24
-26 -40 -36 -21 -12 -30 -25 -30 -44 0 -53 5 -54 379 -59 l346 -6 23 26 c27
30 61 116 69 176 7 56 -11 102 -45 111 -28 7 -46 -11 -94 -90 -38 -65 -74 -81
-185 -82 -120 0 -124 4 -130 122 -7 108 3 133 51 133 40 0 60 -21 75 -77 12
-43 24 -53 54 -45 43 11 71 143 56 266 -10 80 -29 116 -63 116 -29 0 -44 -17
-52 -61 -12 -61 -20 -69 -73 -69 -59 0 -61 4 -61 114 0 109 8 119 97 124 113
7 152 -9 220 -92 67 -81 130 28 88 153 -14 44 -55 94 -74 90 -3 -1 -35 -7 -71
-14z"/>
<path d="M3340 2390 c-36 -4 -126 -8 -201 -9 -120 -1 -138 -3 -153 -20 -29
-32 -17 -63 36 -89 38 -19 49 -30 53 -55 4 -18 5 -148 3 -290 l-3 -257 -42
-39 c-24 -21 -43 -42 -43 -46 0 -20 26 -48 55 -61 80 -33 303 -26 360 12 44
29 42 53 -9 99 l-46 43 0 80 0 80 113 4 c129 4 176 21 244 89 77 75 98 216 48
316 -60 121 -202 169 -415 143z m122 -150 c37 -29 51 -71 46 -141 -4 -54 -8
-66 -36 -90 -35 -31 -88 -39 -110 -17 -13 13 -18 249 -5 261 14 15 81 6 105
-13z"/>
<path d="M16745 2366 c-44 -13 -94 -30 -112 -39 -54 -28 -55 -76 -2 -97 44
-19 62 -64 40 -99 -7 -11 -16 -11 -54 4 -57 21 -155 17 -209 -9 -56 -27 -117
-91 -146 -154 -23 -49 -27 -70 -27 -147 0 -79 4 -97 29 -149 79 -162 241 -224
360 -138 24 18 49 32 54 32 5 0 13 -15 19 -32 l9 -33 69 2 c124 5 225 48 225
97 0 12 -13 35 -30 51 l-30 29 0 334 c0 210 -4 340 -10 353 -14 26 -81 24
-185 -5z m-96 -367 c24 -26 36 -107 28 -198 -11 -122 -40 -165 -97 -141 -39
16 -60 73 -60 163 0 150 67 242 129 176z"/>
<path d="M6990 2164 c-54 -38 -102 -47 -168 -33 -83 18 -198 15 -252 -7 -110
-43 -170 -111 -170 -193 0 -51 13 -84 52 -133 29 -37 30 -40 12 -53 -11 -8
-22 -15 -26 -15 -4 0 -19 -20 -33 -45 -31 -52 -28 -89 11 -125 28 -27 31 -48
9 -57 -26 -9 -47 -62 -41 -97 8 -44 70 -100 131 -121 65 -22 195 -30 273 -16
79 13 166 52 211 94 70 67 92 173 48 238 -45 68 -111 81 -302 57 -84 -10 -97
-9 -120 6 -18 12 -25 24 -23 39 3 20 10 22 104 28 185 11 292 89 296 216 1 34
10 59 30 88 37 53 45 98 24 130 -20 30 -22 30 -66 -1z m-251 -123 c55 -55 52
-194 -5 -220 -54 -24 -94 31 -94 133 0 58 3 67 26 85 33 26 49 26 73 2z m72
-588 c6 -6 9 -22 5 -36 -8 -34 -60 -50 -142 -45 -70 4 -114 32 -114 72 0 21 5
21 120 21 78 0 123 -4 131 -12z"/>
<path d="M4014 2135 c-132 -42 -209 -125 -174 -191 30 -54 106 -36 162 40 73
98 128 80 128 -42 l0 -59 -37 -7 c-21 -3 -52 -6 -70 -6 -87 0 -204 -79 -219
-147 -3 -16 -7 -33 -9 -40 -7 -21 16 -87 41 -120 53 -69 191 -84 275 -29 34
23 46 26 58 17 80 -58 125 -65 198 -30 78 38 124 139 69 153 -13 3 -27 14 -31
23 -4 10 -10 88 -14 174 -6 149 -7 157 -33 191 -15 20 -51 48 -80 62 -44 22
-64 26 -137 25 -48 -1 -104 -7 -127 -14z m120 -371 c10 -25 7 -71 -6 -99 -14
-31 -62 -35 -78 -6 -16 31 -12 79 10 101 24 24 65 26 74 4z"/>
<path d="M4639 2127 c-121 -61 -144 -230 -46 -325 19 -18 62 -52 98 -75 65
-43 80 -66 59 -92 -26 -31 -62 -17 -121 46 -47 51 -61 60 -85 57 -27 -3 -29
-6 -32 -52 -3 -53 35 -148 66 -165 9 -5 78 -12 152 -16 153 -8 188 0 249 58
87 83 80 209 -16 284 -21 17 -67 47 -103 68 -85 49 -96 67 -64 99 24 25 39 20
100 -34 34 -30 67 -50 81 -50 28 0 63 33 63 60 0 28 -26 88 -54 125 l-24 31
-140 1 c-126 2 -144 0 -183 -20z"/>
<path d="M5231 2128 c-95 -47 -137 -167 -92 -263 22 -48 57 -82 142 -138 65
-43 80 -66 59 -92 -25 -30 -59 -17 -119 46 -49 51 -63 60 -87 57 -26 -3 -29
-7 -32 -41 -4 -48 22 -127 52 -160 21 -23 31 -25 163 -32 127 -6 145 -5 184
12 56 25 116 91 125 138 17 94 -17 159 -117 222 -147 93 -154 100 -125 132 27
30 38 27 98 -24 29 -25 63 -48 74 -51 30 -8 63 12 70 42 8 30 -19 104 -51 142
-23 28 -24 28 -162 29 -124 2 -144 0 -182 -19z"/>
<path d="M5895 2132 c-69 -24 -139 -66 -159 -96 -24 -37 -21 -91 6 -110 43
-30 68 -20 139 54 37 39 74 70 82 70 29 0 51 -40 55 -99 3 -36 0 -61 -7 -65
-6 -4 -46 -11 -90 -16 -117 -13 -186 -51 -222 -122 -33 -65 -22 -137 29 -192
62 -66 162 -75 261 -24 l61 31 31 -29 c27 -26 37 -29 93 -29 53 0 68 4 100 29
41 31 76 81 76 108 0 10 -13 24 -29 32 -37 19 -41 37 -41 174 0 151 -11 193
-66 240 -23 21 -60 44 -82 50 -58 17 -179 14 -237 -6z m123 -404 c4 -58 -11
-88 -42 -88 -31 0 -50 24 -50 65 0 43 29 77 63 73 23 -3 26 -8 29 -50z"/>
<path d="M7319 2136 c-136 -49 -219 -168 -219 -316 0 -180 116 -308 290 -318
89 -5 136 6 210 50 68 41 100 92 82 132 -17 38 -38 42 -89 16 -60 -30 -121
-37 -159 -17 -41 21 -73 58 -76 87 l-3 25 162 5 c103 3 166 9 174 17 18 18 26
74 17 123 -15 82 -103 177 -186 200 -51 14 -159 12 -203 -4z m150 -122 c23
-30 27 -64 9 -82 -13 -13 -85 -16 -112 -6 -25 10 -20 61 9 89 32 33 68 32 94
-1z"/>
<path d="M7948 2130 c-80 -24 -180 -66 -190 -83 -15 -24 -7 -54 22 -82 l30
-29 0 -127 c0 -134 -7 -169 -43 -207 -20 -21 -20 -25 -6 -50 25 -46 149 -65
269 -42 91 17 107 48 69 128 -20 39 -21 56 -17 163 4 96 9 123 23 139 24 27
76 26 101 -1 17 -19 19 -37 19 -159 0 -129 -2 -140 -23 -170 -27 -37 -24 -73
9 -91 32 -17 156 -23 233 -11 106 17 129 52 82 121 -23 33 -26 51 -35 206 -5
94 -15 184 -21 200 -35 92 -159 141 -255 100 -20 -8 -50 -31 -69 -51 -41 -45
-66 -41 -66 9 0 61 -23 68 -132 37z"/>
<path d="M8735 2136 c-78 -34 -134 -145 -116 -226 18 -80 51 -118 161 -185 51
-31 60 -41 60 -65 0 -27 -15 -40 -47 -40 -8 0 -43 27 -77 60 -35 33 -72 60
-82 60 -48 0 -56 -47 -24 -133 33 -88 44 -94 196 -102 159 -8 201 1 260 61 61
60 75 148 36 221 -17 31 -83 85 -144 118 -29 15 -61 35 -70 43 -32 27 -17 82
22 82 9 0 43 -22 74 -50 61 -53 92 -62 119 -32 22 24 21 68 -3 117 -38 80 -34
78 -192 81 -101 2 -152 -1 -173 -10z"/>
<path d="M9707 2136 c-133 -49 -217 -172 -217 -317 0 -119 61 -227 160 -283
51 -29 62 -31 155 -31 85 0 107 4 148 24 97 48 144 115 117 167 -16 30 -37 30
-90 3 -55 -29 -119 -35 -156 -16 -40 21 -72 57 -76 87 l-3 25 160 5 c88 3 166
9 172 13 7 4 17 26 23 48 24 86 -45 210 -145 262 -51 27 -192 34 -248 13z
m152 -122 c23 -30 27 -64 9 -82 -7 -7 -33 -12 -58 -12 -25 0 -51 5 -58 12 -19
19 -14 57 13 83 32 33 68 32 94 -1z"/>
<path d="M11480 2121 c-179 -58 -207 -88 -145 -151 l37 -38 -4 -139 c-3 -135
-4 -140 -30 -172 -48 -56 -31 -90 55 -112 66 -16 208 -6 250 19 40 22 44 49
18 101 -17 33 -21 59 -21 150 0 151 13 181 77 181 56 0 68 -32 68 -180 0 -112
-2 -129 -22 -163 -29 -49 -29 -73 1 -92 33 -22 154 -30 240 -17 106 17 130 52
80 117 -24 32 -26 43 -34 210 -7 127 -14 185 -26 210 -57 120 -232 141 -320
38 -37 -43 -64 -40 -64 6 0 35 -23 61 -53 61 -12 -1 -60 -13 -107 -29z"/>
<path d="M12350 2128 c-77 -30 -161 -115 -185 -188 -73 -215 64 -427 281 -438
117 -6 219 34 266 105 36 55 15 132 -33 120 -13 -3 -45 -11 -71 -18 -63 -16
-116 -1 -157 46 -77 89 -60 235 28 235 33 0 54 -22 70 -72 27 -82 105 -102
169 -44 33 31 37 40 37 83 0 70 -37 123 -112 160 -79 39 -210 44 -293 11z"/>
<path d="M13034 2132 c-109 -38 -199 -132 -225 -235 -19 -77 -7 -184 27 -246
119 -220 499 -195 629 40 27 48 30 63 30 139 -1 73 -5 93 -29 140 -37 75 -80
117 -151 151 -52 25 -72 29 -145 29 -54 -1 -103 -7 -136 -18z m116 -132 c41
-22 94 -253 72 -311 -12 -31 -41 -41 -74 -25 -32 16 -69 128 -75 232 -5 77 -4
82 18 98 27 19 34 19 59 6z"/>
<path d="M13775 2143 c-11 -2 -55 -16 -97 -29 -127 -42 -153 -76 -102 -137 25
-30 25 -32 22 -176 -3 -143 -4 -147 -31 -183 -61 -79 -18 -113 143 -112 112 0
174 17 187 50 3 10 -1 39 -10 65 -20 54 -23 231 -6 291 13 49 50 61 82 29 20
-20 22 -32 22 -159 0 -136 0 -139 -27 -171 -34 -40 -34 -46 -4 -76 30 -30 132
-42 234 -28 107 16 134 51 96 125 -19 37 -30 171 -20 252 6 45 13 60 32 73 35
22 68 5 84 -43 20 -60 9 -249 -18 -298 -25 -46 -18 -67 31 -93 49 -27 220 -25
267 2 42 25 50 61 23 101 -15 24 -19 57 -23 225 -6 225 -9 235 -90 277 -79 40
-160 25 -245 -44 l-55 -44 -26 40 c-63 94 -213 91 -308 -7 -43 -45 -66 -40
-66 15 0 57 -24 71 -95 55z"/>
<path d="M14943 2129 c-67 -26 -137 -94 -171 -167 -23 -48 -27 -71 -27 -142 0
-71 4 -94 27 -142 34 -74 95 -132 166 -159 80 -30 196 -24 275 15 94 46 136
111 107 167 -14 25 -35 24 -94 -6 -81 -41 -157 -29 -205 31 -12 15 -21 37 -21
50 l0 24 154 0 c190 0 201 5 200 97 -1 97 -61 184 -159 229 -66 31 -176 32
-252 3z m167 -109 c22 -22 27 -69 8 -88 -17 -17 -103 -15 -118 3 -27 32 18
105 65 105 14 0 34 -9 45 -20z"/>
<path d="M15595 2131 c-84 -25 -167 -60 -187 -78 -27 -24 -22 -59 11 -84 39
-29 44 -52 35 -197 -6 -110 -9 -127 -30 -152 -35 -41 -31 -75 9 -97 25 -14 56
-18 142 -18 170 1 218 31 175 114 -17 34 -20 59 -20 168 0 149 9 173 65 173
37 0 63 -20 69 -53 23 -109 11 -258 -24 -305 -22 -29 -22 -32 -6 -56 21 -33
52 -41 161 -41 148 1 195 18 195 72 0 14 -11 38 -23 53 -22 26 -24 40 -31 186
-4 88 -12 178 -18 201 -19 77 -95 131 -186 132 -56 1 -99 -18 -141 -63 -19
-20 -40 -36 -47 -36 -14 0 -24 23 -24 54 0 49 -29 55 -125 27z"/>
<path d="M17255 2136 c-146 -48 -225 -146 -165 -206 40 -40 98 -17 154 59 20
28 45 53 55 56 44 14 71 -26 71 -106 0 -44 -3 -51 -26 -59 -14 -6 -45 -10 -69
-10 -100 0 -213 -72 -236 -151 -21 -67 10 -145 74 -193 24 -17 43 -21 111 -21
74 0 87 3 126 29 35 23 47 26 59 17 76 -55 121 -64 184 -37 44 19 95 75 103
113 5 28 3 33 -25 47 -17 9 -31 18 -32 19 -1 1 -4 74 -8 163 -6 152 -8 163
-33 201 -41 62 -102 87 -213 90 -54 2 -106 -3 -130 -11z m116 -377 c12 -23 4
-85 -13 -106 -13 -16 -50 -17 -66 -1 -17 17 -15 79 4 106 19 28 60 29 75 1z"/>
<path d="M17885 2133 c-81 -42 -121 -115 -113 -207 6 -73 40 -123 120 -174 71
-46 108 -77 108 -91 0 -17 -31 -41 -52 -41 -11 0 -48 27 -82 60 -37 35 -72 60
-84 60 -48 0 -51 -72 -6 -161 12 -25 29 -51 37 -57 9 -8 67 -13 170 -15 l155
-2 43 30 c76 53 109 124 94 201 -9 51 -75 117 -167 171 -85 49 -108 84 -73
110 29 21 41 16 100 -37 58 -53 91 -62 119 -34 17 17 19 25 16 64 -2 29 -43
112 -62 126 -7 6 -76 11 -153 12 -110 1 -146 -2 -170 -15z"/>
</g>
</svg>
