<?xml version="1.0" encoding="utf-8"?>
<!-- Generator: Adobe Illustrator 25.2.1, SVG Export Plug-In . SVG Version: 6.00 Build 0)  -->
<svg version="1.1" id="Camada_1" xmlns="http://www.w3.org/2000/svg" xmlns:xlink="http://www.w3.org/1999/xlink" x="0px" y="0px"
	 viewBox="0 0 2139 1358" style="enable-background:new 0 0 2139 1358;" xml:space="preserve">
<style type="text/css">
	.st0{fill:none;stroke:#000000;stroke-width:2;stroke-miterlimit:10;}
</style>
<g transform="translate(0.000000,1358.000000) scale(0.100000,-0.100000)">
	<path d="M11544,12243c-82-92-207-228-279-302c-947-979-2086-1552-3410-1716c-320-39-489-49-845-48c-524,0-995,45-1556,148
		c-197,37-235,46-229,56c9,14,272,210,377,280c304,205,668,386,1073,533c90,32,62,33-84,0c-575-127-1114-356-1585-673
		c-58-39-113-71-121-71c-41,0-534,134-792,216c-205,64-525,173-709,240c-103,38-159,54-162,46c-2-6-23-53-48-102c-24-50-44-93-44-95
		s75-45,168-96c305-168,661-381,945-566l128-83l-123-133c-309-333-540-667-737-1067c-400-812-529-1684-380-2580
		c24-148,104-464,152-605c170-499,422-951,753-1349l103-125l-101-133c-148-194-539-676-777-957c-56-67-81-79,329,167
		c358,215,628,385,793,499c65,44,112,71,120,67c6-4,48-38,92-75c111-92,291-222,432-311c588-373,1249-596,1963-663
		c244-24,715-16,950,14c973,126,1892,559,2556,1203c55,54,103,98,107,98c3,0,70-106,148-235c79-128,145-233,146-231
		c2,2-8,136-22,297c-14,162-27,326-31,364l-5,70l46,55c230,273,508,741,653,1100c239,593,342,1186,311,1798c-5,112-8,207-5,209
		c3,3,60-9,128-27c209-55,247-62,283-56c51,10,101,58,125,122c29,80,28,87-18,79c-29-5-65,2-143,26c-91,28-119,32-224,32
		c-115,1-162-3-195-17c-8-3-34-12-57-20c-150-52-328-211-402-357c-69-137-69-247,0-317c49-50,96-43,172,26c40,38,35,65-18,103
		c-42,30-85,96-85,130c1,61,115,206,196,247c46,24,154,45,178,36c20-8,20-27,1-184c-67-547-249-1100-522-1585
		c-117-207-341-532-476-689l-34-39l-17,109c-174,1087-462,2026-874,2849c-144,290-312,583-454,793c-27,40-48,77-46,81
		c2,5,44,39,93,77c684,517,1247,1102,1622,1684c263,408,445,832,533,1240c20,91,91,572,86,577C11695,12408,11627,12334,11544,12243z
		 M11286,11533c-305-889-1056-1788-2158-2581c-49-35-88-65-88-68s47-73,104-157c668-982,1102-2122,1341-3521c19-111,41-252,50-315
		l17-114l-41-41c-22-22-42-38-44-36c-2,3-50,70-108,150c-756,1051-1609,1792-2531,2199c-76,34-143,61-149,61c-7,0-26,11-44,24
		l-31,24l-70-91c-629-831-1455-1698-2259-2373c-114-96-437-352-462-367c-12-8-153,117-153,135c0,5,62,103,138,216
		c652,974,1167,1991,1540,3042c117,328,175,517,168,544c-9,37-215,339-317,467c-328,408-791,837-1307,1209l-74,53l95,95l95,95
		l149-32c898-191,1795-253,2563-176c1349,136,2495,652,3480,1567c74,69,136,124,138,123C11329,11664,11310,11605,11286,11533z
		 M4458,10319c103-28,189-53,191-55c7-7-84-83-99-83c-8,0-82,45-165,100c-82,56-142,98-132,95S4355,10347,4458,10319z M4774,9728
		c168-125,431-335,568-455c342-299,699-699,874-980l45-71l-54-164c-118-356-270-752-432-1123c-113-260-413-866-555-1120
		c-198-354-494-835-668-1084l-65-94l-39,44c-153,176-342,463-459,699c-279,561-402,1129-386,1770c24,907,348,1778,947,2539
		c52,67,99,121,104,121S4713,9773,4774,9728z M7921,6747c399-201,716-414,1084-731c405-347,873-876,1228-1387l67-96l-103-85
		c-634-526-1382-870-2172-1002c-253-42-357-50-680-51c-204,0-360,5-430,13c-571,68-1073,229-1521,488c-140,81-377,240-395,265
		c-2,4,79,73,181,154c863,690,1671,1506,2384,2408c59,75,114,137,121,137C7691,6860,7798,6809,7921,6747z M4296,3952
		c-18-16-18-16-6,6c6,13,14,21,18,18C4311,3972,4306,3962,4296,3952z"/>
	<path d="M7550,12314c-158-19-346-97-467-194c-159-127-285-343-323-550c-15-82-14-311,2-360c3-8,17-53,31-100
		c77-247,274-462,516-560c202-83,458-82,659,2c423,176,648,652,522,1105c-87,312-332,553-643,633C7772,12309,7615,12322,7550,12314z
		"/>
	<path d="M13295,11417c-532-363-979-785-1631-1542l-168-195h-188h-188l11,27c22,57,63,85,169,114l65,18h-70c-93,0-211-21-265-49
		c-63-32-142-110-228-225c-159-213-186-345-74-374c20-5,92-13,160-17c208-11,209,19-5-259c-102-132-193-251-202-264
		c-17-22-19-23-48-8c-64,34-165-26-287-169c-172-201-316-465-316-579c0-109,103-110,227-2c77,66,114,107,369,412
		c345,411,445,533,569,689l117,150h444c292,1,443-2,440-9c-2-5-50-116-106-245c-176-404-214-522-209-646c10-206,155-317,315-239
		c31,15,83,50,117,78c92,76,437,398,452,421c7,12,15,47,19,78l6,57l-122-83c-169-115-237-150-277-141c-17,4-38,16-46,28
		c-37,53-9,155,143,512l89,210l156,15l156,15l141,213c77,118,147,227,155,242c18,35,19,74,3,87c-7,6-85,14-173,17
		c-88,4-161,9-163,11c-5,5,147,339,352,773c96,202,193,412,216,466c74,175,85,289,39,410C13424,11509,13430,11509,13295,11417z
		 M12949,10688c-196-391-325-655-415-845l-43-93h-98c-54,0-210-3-347-7l-250-6l84,102c235,287,754,826,1000,1037
		c110,95,258,214,266,214C13148,11090,13059,10909,12949,10688z"/>
	<path d="M14315,10691c-115-29-205-130-318-357l-46-92l-153-5c-100-3-171-10-204-21c-110-35-187-125-288-338c-53-110-87-221-72-235
		c4-4,30,1,59,12c40,15,85,20,195,23c78,2,142,1,142-2c0-12-176-307-258-431c-95-146-151-221-229-312l-54-62l3-85l3-85l94,105
		c52,57,96,102,98,100c2-1-13-54-33-117c-19-63-51-175-71-249c-62-235-47-410,43-510c45-50,81-63,152-58c101,7,218,78,376,228
		c91,87,250,265,356,399c41,52,75,90,76,85c2-5,10-60,19-122c64-456,248-613,515-441c112,72,274,247,418,452l40,57l6-57
		c12-96,46-213,91-310c89-191,213-265,338-202c57,29,228,204,361,369c60,74,115,141,121,148c10,11,23,7,74-19c112-59,216-39,349,66
		c45,36,84,65,86,65s6-26,9-57c15-141,105-369,185-470c54-67,91-87,136-74c101,27,207,143,546,593c69,91,126,165,127,164
		c2-1-11-49-27-107c-100-350-112-611-31-698c57-60,151-48,277,35c114,76,322,300,527,567l1461.1,41.8v77v78L18343,8809
		c-174-170-307-259-388-259c-59,0-101,26-126,76c-18,39-21,58-17,142c4,115,15,141,162,392c53,91,103,187,111,214
		c17,57,12,88-40,232c-19,54-34,99-32,100c1,1,25,13,54,28c59,29,73,49,73,100c0,72-66,193-122,222c-109,56-506-122-788-355
		c-243-200-496-484-571-639c-17-35-36-92-42-127c-12-62-15-66-77-120c-72-61-136-91-174-81c-24,6-89,87-89,110c0,6,23,50,51,96
		c166,277,281,621,257,775c-7,51-48,105-80,105c-77,0-240-206-375-474c-79-156-129-303-137-399c-6-70-7-71-81-161
		c-97-118-255-280-309-317c-52-36-95-38-128-5c-38,38-41,99-14,271l23,150l65,70c230,250,439,644,407,768c-9,37-95,77-163,77
		c-100,0-166-55-289-240c-168-252-267-462-305-649c-13-63-15-66-109-153c-233-216-363-275-485-219c-85,38-120,110-113,230
		c7,111,29,148,233,396c108,130,128,161,193,291c125,250,131,372,22,405c-90,27-208-25-319-140c-101-106-255-349-340-538
		c-41-90-81-224-81-268c0-26-193-218-325-324c-226-182-345-156-345,73c0,201,72,422,271,834l79,164l97-8c54-5,120-9,147-9h48l70,115
		c70,117,232,430,225,436c-2,2-48,11-102,19s-100,16-102,19c-7,7,20,54,123,218c101,161,112,196,72,222
		C14429,10692,14354,10701,14315,10691z M17789,9464c-133-221-331-518-412-619c-137-170-355-355-417-355c-59,0-96,88-87,210
		c16,232,180,421,602,695c135,88,407,247,412,241C17889,9634,17845,9556,17789,9464z"/>
	<path d="M15163,10619c-64-19-162-145-204-265c-42-117-24-217,50-268c82-57,174-20,255,103c63,94,90,169,90,251
		C15355,10573,15271,10652,15163,10619z"/>
	<path d="M12359,7253l-126-25l-46-141c-136-422-110-657,74-657c90,0,168,42,289,156c63,60,68,63,74,42c3-13,6-32,6-44
		c0-11,11-43,25-71c61-123,186-109,371,40c102,83,241,229,290,305c36,56,40,59,116,83c43,13,78,24,78,22c0-1-25-48-55-105
		c-83-158-103-262-66-344c63-139,207-107,448,101l41,36l7-43c10-64,50-141,84-161c16-9,46-17,68-17c110,0,360,231,560,517l66,96
		l22-49c12-27,40-78,62-114c80-132,90-189,44-261c-35-55-86-89-134-89c-44,0-68,23-97,95c-31,77-45,78-112,5c-32-34-60-71-64-82
		c-9-28,23-68,77-96c37-20,55-23,119-19c108,5,174,39,276,141c157,158,178,280,78,450c-52,86-62,135-44,201c7,25,11,48,8,50
		c-5,5-165-20-199-31c-9-2-40-51-68-107c-61-123-177-279-299-404c-72-73-98-93-128-99c-109-20-107,69,11,440c35,110,62,202,61,203
		c-1,2-59-9-129-24l-126-26l-47-141c-26-78-54-179-64-226l-17-85l-81-72c-83-74-114-90-157-79c-82,21-64,134,86,535
		c22,57,39,108,39,112c0,14-68,11-80-3c-6-7-30-41-53-74c-63-92-159-164-218-164c-17,0-17,2,2,57c26,77,27,147,3,174
		c-26,29-100,22-146-13c-43-33-88-125-95-194c-6-54-5-55,36-94l42-40l-40-52c-48-65-182-197-235-232c-78-52-136-25-136,64
		c0,54,2,63,87,347c37,123,65,224,62,227c-2,2-60-7-129-21l-125-25l-68-221c-74-242-96-284-181-365c-59-56-95-70-132-53
		c-57,26-55,110,6,332c22,79,55,191,75,248c19,58,34,105,32,106C12486,7276,12428,7266,12359,7253z"/>
	<path d="M15441,7259c-52-10-97-22-101-26c-16-18-93-211-116-292c-32-110-50-316-38-427l9-81l101,24c114,27,114,27,114,132
		c0,75,27,218,50,265c23,49,179,204,230,231c50,26,56,12,41-96c-7-50-37-194-67-321s-53-233-51-235c5-5,231,38,238,45
		c4,4,25,86,48,182s47,189,54,205c15,39,169,199,207,215c68,28,76-12,30-159c-72-235-85-342-51-418c31-66,99-89,193-63
		c50,14,141,77,226,155c38,36,73,65,76,65s6-8,6-17c0-35,48-119,87-154c22-20,57-42,78-49c53-17,153-8,212,21c47,23,132,99,169,151
		l19,28l49-25c63-32,117-32,181,0c79,38,85,46,85,104v53l-47-42c-82-73-148-86-204-41l-23,18l27,89c15,49,34,116,42,149
		c19,70,31,230,21,269c-14,57-144,83-278,55c-207-43-384-226-418-434c-11-65-16-74-69-128c-108-112-181-145-201-92
		c-12,32-2,79,51,244c45,140,66,257,55,315s-62,106-114,106c-76,0-142-42-284-178l-88-85l1,84c1,96-8,128-47,158
		c-71,56-179,6-347-160c-105-105-118-114-112-86c6,29,63,207,80,250C15574,7284,15564,7284,15441,7259z M17190,7214c0-4-18-27-41-51
		c-63-69-83-122-83-223c0-72,4-94,28-147c16-35,35-68,42-74c22-18,17-33-27-83c-73-83-133-95-183-36c-79,94-50,390,52,526
		c44,58,108,94,169,94C17171,7220,17190,7217,17190,7214z"/>
	<path d="M11070,2405c-40-8-163-13-322-14c-244-1-259-2-278-21c-35-35-25-67,27-93c25-14,33-26,42-66c27-129,21-505-9-562
		c-6-10-24-26-40-36c-21-12-30-25-30-44c0-53,5-54,379-59l346-6l23,26c27,30,61,116,69,176c7,56-11,102-45,111c-28,7-46-11-94-90
		c-38-65-74-81-185-82c-120,0-124,4-130,122c-7,108,3,133,51,133c40,0,60-21,75-77c12-43,24-53,54-45c43,11,71,143,56,266
		c-10,80-29,116-63,116c-29,0-44-17-52-61c-12-61-20-69-73-69c-59,0-61,4-61,114c0,109,8,119,97,124c113,7,152-9,220-92
		c67-81,130,28,88,153c-14,44-55,94-74,90C11138,2418,11106,2412,11070,2405z"/>
	<path d="M3340,2390c-36-4-126-8-201-9c-120-1-138-3-153-20c-29-32-17-63,36-89c38-19,49-30,53-55c4-18,5-148,3-290l-3-257l-42-39
		c-24-21-43-42-43-46c0-20,26-48,55-61c80-33,303-26,360,12c44,29,42,53-9,99l-46,43v80v80l113,4c129,4,176,21,244,89
		c77,75,98,216,48,316C3695,2368,3553,2416,3340,2390z M3462,2240c37-29,51-71,46-141c-4-54-8-66-36-90c-35-31-88-39-110-17
		c-13,13-18,249-5,261C3371,2268,3438,2259,3462,2240z"/>
	<path d="M16745,2366c-44-13-94-30-112-39c-54-28-55-76-2-97c44-19,62-64,40-99c-7-11-16-11-54,4c-57,21-155,17-209-9
		c-56-27-117-91-146-154c-23-49-27-70-27-147c0-79,4-97,29-149c79-162,241-224,360-138c24,18,49,32,54,32s13-15,19-32l9-33l69,2
		c124,5,225,48,225,97c0,12-13,35-30,51l-30,29v334c0,210-4,340-10,353C16916,2397,16849,2395,16745,2366z M16649,1999
		c24-26,36-107,28-198c-11-122-40-165-97-141c-39,16-60,73-60,163C16520,1973,16587,2065,16649,1999z"/>
	<path d="M6990,2164c-54-38-102-47-168-33c-83,18-198,15-252-7c-110-43-170-111-170-193c0-51,13-84,52-133c29-37,30-40,12-53
		c-11-8-22-15-26-15s-19-20-33-45c-31-52-28-89,11-125c28-27,31-48,9-57c-26-9-47-62-41-97c8-44,70-100,131-121c65-22,195-30,273-16
		c79,13,166,52,211,94c70,67,92,173,48,238c-45,68-111,81-302,57c-84-10-97-9-120,6c-18,12-25,24-23,39c3,20,10,22,104,28
		c185,11,292,89,296,216c1,34,10,59,30,88c37,53,45,98,24,130C7036,2195,7034,2195,6990,2164z M6739,2041c55-55,52-194-5-220
		c-54-24-94,31-94,133c0,58,3,67,26,85C6699,2065,6715,2065,6739,2041z M6811,1453c6-6,9-22,5-36c-8-34-60-50-142-45
		c-70,4-114,32-114,72c0,21,5,21,120,21C6758,1465,6803,1461,6811,1453z"/>
	<path d="M4014,2135c-132-42-209-125-174-191c30-54,106-36,162,40c73,98,128,80,128-42v-59l-37-7c-21-3-52-6-70-6
		c-87,0-204-79-219-147c-3-16-7-33-9-40c-7-21,16-87,41-120c53-69,191-84,275-29c34,23,46,26,58,17c80-58,125-65,198-30
		c78,38,124,139,69,153c-13,3-27,14-31,23c-4,10-10,88-14,174c-6,149-7,157-33,191c-15,20-51,48-80,62c-44,22-64,26-137,25
		C4093,2148,4037,2142,4014,2135z M4134,1764c10-25,7-71-6-99c-14-31-62-35-78-6c-16,31-12,79,10,101C4084,1784,4125,1786,4134,1764
		z"/>
	<path d="M4639,2127c-121-61-144-230-46-325c19-18,62-52,98-75c65-43,80-66,59-92c-26-31-62-17-121,46c-47,51-61,60-85,57
		c-27-3-29-6-32-52c-3-53,35-148,66-165c9-5,78-12,152-16c153-8,188,0,249,58c87,83,80,209-16,284c-21,17-67,47-103,68
		c-85,49-96,67-64,99c24,25,39,20,100-34c34-30,67-50,81-50c28,0,63,33,63,60c0,28-26,88-54,125l-24,31l-140,1
		C4696,2149,4678,2147,4639,2127z"/>
	<path d="M5231,2128c-95-47-137-167-92-263c22-48,57-82,142-138c65-43,80-66,59-92c-25-30-59-17-119,46c-49,51-63,60-87,57
		c-26-3-29-7-32-41c-4-48,22-127,52-160c21-23,31-25,163-32c127-6,145-5,184,12c56,25,116,91,125,138c17,94-17,159-117,222
		c-147,93-154,100-125,132c27,30,38,27,98-24c29-25,63-48,74-51c30-8,63,12,70,42c8,30-19,104-51,142c-23,28-24,28-162,29
		C5289,2149,5269,2147,5231,2128z"/>
	<path d="M5895,2132c-69-24-139-66-159-96c-24-37-21-91,6-110c43-30,68-20,139,54c37,39,74,70,82,70c29,0,51-40,55-99
		c3-36,0-61-7-65c-6-4-46-11-90-16c-117-13-186-51-222-122c-33-65-22-137,29-192c62-66,162-75,261-24l61,31l31-29c27-26,37-29,93-29
		c53,0,68,4,100,29c41,31,76,81,76,108c0,10-13,24-29,32c-37,19-41,37-41,174c0,151-11,193-66,240c-23,21-60,44-82,50
		C6074,2155,5953,2152,5895,2132z M6018,1728c4-58-11-88-42-88s-50,24-50,65c0,43,29,77,63,73C6012,1775,6015,1770,6018,1728z"/>
	<path d="M7319,2136c-136-49-219-168-219-316c0-180,116-308,290-318c89-5,136,6,210,50c68,41,100,92,82,132c-17,38-38,42-89,16
		c-60-30-121-37-159-17c-41,21-73,58-76,87l-3,25l162,5c103,3,166,9,174,17c18,18,26,74,17,123c-15,82-103,177-186,200
		C7471,2154,7363,2152,7319,2136z M7469,2014c23-30,27-64,9-82c-13-13-85-16-112-6c-25,10-20,61,9,89C7407,2048,7443,2047,7469,2014
		z"/>
	<path d="M7948,2130c-80-24-180-66-190-83c-15-24-7-54,22-82l30-29v-127c0-134-7-169-43-207c-20-21-20-25-6-50c25-46,149-65,269-42
		c91,17,107,48,69,128c-20,39-21,56-17,163c4,96,9,123,23,139c24,27,76,26,101-1c17-19,19-37,19-159c0-129-2-140-23-170
		c-27-37-24-73,9-91c32-17,156-23,233-11c106,17,129,52,82,121c-23,33-26,51-35,206c-5,94-15,184-21,200c-35,92-159,141-255,100
		c-20-8-50-31-69-51c-41-45-66-41-66,9C8080,2154,8057,2161,7948,2130z"/>
	<path d="M8735,2136c-78-34-134-145-116-226c18-80,51-118,161-185c51-31,60-41,60-65c0-27-15-40-47-40c-8,0-43,27-77,60
		c-35,33-72,60-82,60c-48,0-56-47-24-133c33-88,44-94,196-102c159-8,201,1,260,61c61,60,75,148,36,221c-17,31-83,85-144,118
		c-29,15-61,35-70,43c-32,27-17,82,22,82c9,0,43-22,74-50c61-53,92-62,119-32c22,24,21,68-3,117c-38,80-34,78-192,81
		C8807,2148,8756,2145,8735,2136z"/>
	<path d="M9707,2136c-133-49-217-172-217-317c0-119,61-227,160-283c51-29,62-31,155-31c85,0,107,4,148,24c97,48,144,115,117,167
		c-16,30-37,30-90,3c-55-29-119-35-156-16c-40,21-72,57-76,87l-3,25l160,5c88,3,166,9,172,13c7,4,17,26,23,48c24,86-45,210-145,262
		C9904,2150,9763,2157,9707,2136z M9859,2014c23-30,27-64,9-82c-7-7-33-12-58-12s-51,5-58,12c-19,19-14,57,13,83
		C9797,2048,9833,2047,9859,2014z"/>
	<path d="M11480,2121c-179-58-207-88-145-151l37-38l-4-139c-3-135-4-140-30-172c-48-56-31-90,55-112c66-16,208-6,250,19
		c40,22,44,49,18,101c-17,33-21,59-21,150c0,151,13,181,77,181c56,0,68-32,68-180c0-112-2-129-22-163c-29-49-29-73,1-92
		c33-22,154-30,240-17c106,17,130,52,80,117c-24,32-26,43-34,210c-7,127-14,185-26,210c-57,120-232,141-320,38c-37-43-64-40-64,6
		c0,35-23,61-53,61C11575,2149,11527,2137,11480,2121z"/>
	<path d="M12350,2128c-77-30-161-115-185-188c-73-215,64-427,281-438c117-6,219,34,266,105c36,55,15,132-33,120c-13-3-45-11-71-18
		c-63-16-116-1-157,46c-77,89-60,235,28,235c33,0,54-22,70-72c27-82,105-102,169-44c33,31,37,40,37,83c0,70-37,123-112,160
		C12564,2156,12433,2161,12350,2128z"/>
	<path d="M13034,2132c-109-38-199-132-225-235c-19-77-7-184,27-246c119-220,499-195,629,40c27,48,30,63,30,139c-1,73-5,93-29,140
		c-37,75-80,117-151,151c-52,25-72,29-145,29C13116,2149,13067,2143,13034,2132z M13150,2000c41-22,94-253,72-311
		c-12-31-41-41-74-25c-32,16-69,128-75,232c-5,77-4,82,18,98C13118,2013,13125,2013,13150,2000z"/>
	<path d="M13775,2143c-11-2-55-16-97-29c-127-42-153-76-102-137c25-30,25-32,22-176c-3-143-4-147-31-183c-61-79-18-113,143-112
		c112,0,174,17,187,50c3,10-1,39-10,65c-20,54-23,231-6,291c13,49,50,61,82,29c20-20,22-32,22-159c0-136,0-139-27-171
		c-34-40-34-46-4-76s132-42,234-28c107,16,134,51,96,125c-19,37-30,171-20,252c6,45,13,60,32,73c35,22,68,5,84-43
		c20-60,9-249-18-298c-25-46-18-67,31-93c49-27,220-25,267,2c42,25,50,61,23,101c-15,24-19,57-23,225c-6,225-9,235-90,277
		c-79,40-160,25-245-44l-55-44l-26,40c-63,94-213,91-308-7c-43-45-66-40-66,15C13870,2145,13846,2159,13775,2143z"/>
	<path d="M14943,2129c-67-26-137-94-171-167c-23-48-27-71-27-142s4-94,27-142c34-74,95-132,166-159c80-30,196-24,275,15
		c94,46,136,111,107,167c-14,25-35,24-94-6c-81-41-157-29-205,31c-12,15-21,37-21,50v24h154c190,0,201,5,200,97
		c-1,97-61,184-159,229C15129,2157,15019,2158,14943,2129z M15110,2020c22-22,27-69,8-88c-17-17-103-15-118,3c-27,32,18,105,65,105
		C15079,2040,15099,2031,15110,2020z"/>
	<path d="M15595,2131c-84-25-167-60-187-78c-27-24-22-59,11-84c39-29,44-52,35-197c-6-110-9-127-30-152c-35-41-31-75,9-97
		c25-14,56-18,142-18c170,1,218,31,175,114c-17,34-20,59-20,168c0,149,9,173,65,173c37,0,63-20,69-53c23-109,11-258-24-305
		c-22-29-22-32-6-56c21-33,52-41,161-41c148,1,195,18,195,72c0,14-11,38-23,53c-22,26-24,40-31,186c-4,88-12,178-18,201
		c-19,77-95,131-186,132c-56,1-99-18-141-63c-19-20-40-36-47-36c-14,0-24,23-24,54C15720,2153,15691,2159,15595,2131z"/>
	<path d="M17255,2136c-146-48-225-146-165-206c40-40,98-17,154,59c20,28,45,53,55,56c44,14,71-26,71-106c0-44-3-51-26-59
		c-14-6-45-10-69-10c-100,0-213-72-236-151c-21-67,10-145,74-193c24-17,43-21,111-21c74,0,87,3,126,29c35,23,47,26,59,17
		c76-55,121-64,184-37c44,19,95,75,103,113c5,28,3,33-25,47c-17,9-31,18-32,19s-4,74-8,163c-6,152-8,163-33,201
		c-41,62-102,87-213,90C17331,2149,17279,2144,17255,2136z M17371,1759c12-23,4-85-13-106c-13-16-50-17-66-1c-17,17-15,79,4,106
		C17315,1786,17356,1787,17371,1759z"/>
	<path d="M17885,2133c-81-42-121-115-113-207c6-73,40-123,120-174c71-46,108-77,108-91c0-17-31-41-52-41c-11,0-48,27-82,60
		c-37,35-72,60-84,60c-48,0-51-72-6-161c12-25,29-51,37-57c9-8,67-13,170-15l155-2l43,30c76,53,109,124,94,201c-9,51-75,117-167,171
		c-85,49-108,84-73,110c29,21,41,16,100-37c58-53,91-62,119-34c17,17,19,25,16,64c-2,29-43,112-62,126c-7,6-76,11-153,12
		C17945,2149,17909,2146,17885,2133z"/>
</g>
<path d="M852.9,965.1l35-17.1c0,0-1.3-2.3,3.7-4.7l31-15.2c0,0,2.4-1.8,4.2,0.6l22.8-11.2c0,0,3.5-1.3,6,1.9l5.9-3l3.3,0.4l2,3.9
	c0,0,0,0.8-0.8,0.7l-1.3-2.8l-1.8-0.4l-5.3,2.6c0,0,11.3,12,11.4,12.9c0,0,6.1,11.2,2.9,12l-13.1,6.5c0,0-2.5-9.2-11.1-5.7
	c0,0-7.8,3.5-2.3,12.5l-41.2,20.3c0,0-2.1-9-10.9-6.2c0,0-8.3,4.2-2.6,12.6l-22.5,9.4c0,0-2,1.6-4-2.9
	C864,992.7,849.5,968,852.9,965.1z"/>
<circle class="st0" cx="895.9" cy="980.8" r="5.2"/>
<circle class="st0" cx="950.8" cy="954.1" r="5.2"/>
</svg>
