<?xml version="1.0" encoding="utf-8"?>
<!-- Generator: Adobe Illustrator 25.2.1, SVG Export Plug-In . SVG Version: 6.00 Build 0)  -->
<svg version="1.1" xmlns="http://www.w3.org/2000/svg" xmlns:xlink="http://www.w3.org/1999/xlink" x="0px" y="0px"
	 viewBox="0 0 720 720" style="enable-background:new 0 0 720 720;" xml:space="preserve">
<style type="text/css">
	.st0{fill:#DD0000;}
	.st1{fill:#F9F9F9;}
</style>
<g id="Camada_3">
	<rect x="-0.9" y="-0.9" width="723.5" height="724.2"/>
</g>
<g id="Camada_2">
	<g>
		<path class="st0" d="M268.1,214.5c-15.7,6.7-31.1,13.8-46,21.6c-3.7,2-7.4,3.9-11.1,6l-10.9,6.2l-10.6,6.6
			c-3.5,2.3-6.9,4.6-10.4,6.9c-13.6,9.4-26.5,19.6-38.3,30.8c-5.9,5.6-11.5,11.4-16.8,17.4c-0.7,0.8-1.4,1.5-2,2.2l-1.9,2.3
			l-3.8,4.7c-1.3,1.5-2.5,3.2-3.7,4.8l-3.6,4.8c-1.3,1.6-2.2,3.2-3.3,4.8l-3.2,4.8c-0.6,0.8-1,1.6-1.4,2.5l-1.3,2.6l-2.7,5.1
			c-0.2,0.4-0.5,0.8-0.7,1.3l-0.6,1.3l-1.2,2.7l-2.5,5.3c-0.4,0.9-0.8,1.8-1.2,2.7l-1.1,2.7l-2.2,5.4c-5.5,14.5-8.6,29.4-9.5,44.3
			l-0.3,5.6l-0.1,1.4l0,1.4l0.1,2.8l0.1,5.6l0.5,5.5l0.3,2.8l0.1,1.4c0,0.5,0.1,0.9,0.2,1.4l0.9,5.5l0.4,2.7
			c0.2,0.9,0.4,1.8,0.6,2.7l1.3,5.4c3.7,14.5,9.4,28.5,16.8,42l-0.8-1.4c7.3,11.3,15.7,21.8,25,31.4c9.3,9.6,19.5,18.4,30.5,26.2
			c11,7.8,22.8,14.6,35.1,20.6l4.6,2.2c1.5,0.7,3.1,1.5,4.7,2.2l9.5,4.1c6.5,2.5,12.9,5.1,19.6,7.2c3.3,1.1,6.6,2.3,10,3.2l10.1,3
			c6.7,1.7,13.3,3.7,19.9,4.8l2.5,0.5l2.6,0.5l5.2,0.9c3.5,0.6,6.9,1.1,10.4,1.6l10.4,1.3c3.5,0.3,7,0.8,10.5,1
			c14,1.2,28,1.7,42,1.4c14-0.2,28.1-1.3,42.1-3.1c6.9-0.8,14.4-2.1,21.5-3.1l5.4-0.8l5.2-0.9l5.2-0.9l5.2-1
			c13.7-2.8,27.3-6.4,40.6-10.9c26.7-8.9,52.3-21.3,76.5-36.8c3-2,6-3.9,9-5.9l8.8-6.1c2.9-2.1,5.7-4.3,8.6-6.4
			c0.7-0.5,1.4-1.1,2.1-1.6l2.1-1.7l4.1-3.4c11-9.1,21.1-19.1,29.9-30.2c8.7-11.1,16.2-23.3,21.1-36.7l1.7-5.1
			c0.3-0.9,0.6-1.7,0.8-2.6l0.7-2.6l1.4-5.3c0.4-1.8,0.6-3.6,1-5.4l0.5-2.7c0.1-0.5,0.2-0.9,0.2-1.4l0.1-1.4l0.5-5.5
			c0.2-1.8,0.2-3.7,0.3-5.5l0.1-5.6l1-0.1c3.7,14.6,4.4,30.3,1.8,45.8c-0.1,0.5-0.1,1-0.2,1.5l-0.3,1.4l-0.6,2.9
			c-0.4,1.9-0.8,3.9-1.3,5.7l-1.7,5.6c-0.6,1.9-1.1,3.8-1.9,5.6l-2.2,5.5c-0.4,0.9-0.7,1.9-1.1,2.7l-1.3,2.7L635,503
			c-0.2,0.4-0.4,0.9-0.7,1.3l-0.7,1.3l-1.5,2.6c-7.7,13.8-17.4,26.3-27.9,37.9l-4,4.3l-2,2.1c-0.7,0.7-1.4,1.4-2.1,2
			c-2.8,2.7-5.6,5.5-8.4,8.1l-8.7,7.8c-1.4,1.3-3,2.5-4.4,3.8l-4.5,3.7c-12.1,9.8-24.8,18.9-38.3,27c-13.4,8.1-27.5,15.3-42,21.5
			c-14.5,6.2-29.5,11.4-44.8,15.5l-5.7,1.5l-5.8,1.4l-5.8,1.3l-5.6,1.1l-5.6,1.1l-5.6,1.2c-3.6,0.8-7.6,1.5-11.4,2.2
			c-30.9,5.5-62.7,7.2-94.3,5.2c-3.9-0.2-7.9-0.6-11.8-0.9c-3.9-0.4-7.9-0.9-11.8-1.3c-3.9-0.6-7.8-1-11.7-1.7l-5.8-1l-2.9-0.5
			l-3-0.6c-8.1-1.4-15.8-3.6-23.6-5.5c-3.8-1.1-7.6-2.2-11.4-3.3c-3.8-1.1-7.5-2.4-11.3-3.7c-7.5-2.4-15-5.4-22.4-8.3l-11-4.8
			c-1.8-0.8-3.6-1.7-5.4-2.6l-5.4-2.7c-14.4-7.2-28.3-15.7-41.5-25.3c-13.1-9.8-25.4-20.8-36.4-33l-4.1-4.6
			c-1.4-1.5-2.6-3.2-3.9-4.8l-3.9-4.8c-0.6-0.8-1.3-1.6-1.9-2.4l-1.8-2.5l-3.6-5c-1.2-1.7-2.4-3.3-3.5-5.1L60.7,522l-0.5-0.7
			l-0.3-0.6c-8.2-16.7-14.6-34.6-18.2-53.3c-3.6-18.7-4.3-38.1-1.8-57c2.4-18.9,8.1-37.1,16-53.8l3.1-6.2l1.5-3.1c0.5-1,1-2.1,1.6-3
			l3.4-5.9l1.7-3l0.9-1.5c0.3-0.5,0.6-1,1-1.5l3.9-5.8l1.9-2.9c0.6-1,1.3-1.9,2-2.8l4.4-5.4c1.5-1.8,2.9-3.7,4.4-5.3l4.5-5
			c1.5-1.7,3-3.3,4.6-4.9l4.8-4.7l2.4-2.4c0.8-0.8,1.7-1.5,2.5-2.3c6.6-6,13.5-11.7,20.6-17.1c14.3-10.6,29.3-19.8,44.9-27.6
			c3.9-1.9,7.8-3.8,11.8-5.7l12-5.1l12.1-4.7c2-0.8,4.1-1.5,6.1-2.2l6.1-2.1c16.4-5.4,33-9.7,49.7-13L268.1,214.5z"/>
	</g>
	<g>
		<path class="st1" d="M44.6,228.3c20.3,9.4,40.5,18.9,60.6,28.7c20.1,9.8,40.1,19.9,59.9,30.4c19.7,10.6,39.3,21.6,58.2,33.6
			c9.5,6,18.8,12.3,27.9,19c9.1,6.7,17.9,13.8,26.3,21.4l0,0l1.9,1.7l-1.1,2.3c-12.1,25.3-25.6,49.9-40.4,73.7
			c-14.9,23.8-31.1,46.7-48.6,68.6c-17.5,21.9-36.2,42.8-55.8,62.8c-19.6,20-40.2,39-61.5,57.2l0,0l-3.7-5.8
			c53.7-24,105.3-52.6,154.2-85.5c48.9-32.8,94.9-69.9,138.2-109.9l0.9,1c-42.7,40.8-88.2,78.7-136.8,112.4
			c-48.5,33.8-100,63.3-153.7,88.4L49,638.7l18.4-16.2l0,0c21.1-18.1,41.5-37,61-56.8c19.5-19.8,38-40.6,55.3-62.3
			c17.3-21.7,33.4-44.4,48.1-67.9c14.7-23.5,28.1-47.9,40-73l0.8,4l0,0c-8-7.6-16.4-14.8-25.2-21.5c-8.8-6.7-17.9-13.2-27.2-19.3
			c-18.6-12.3-37.8-23.7-57.2-34.6c-19.5-10.9-39.2-21.4-59.1-31.6c-19.9-10.2-39.9-20.1-60-29.9L44.6,228.3z"/>
	</g>
	<g>
		<path class="st0" d="M360.2,426.5c22.7,7,44.7,16.5,65.6,28.1c20.8,11.6,40.5,25.2,59.1,40.2c18.5,15,35.9,31.5,52.3,48.8
			c16.4,17.3,31.9,35.5,46.6,54.3l-6.3,2.5c-2.9-24.9-6.9-49.6-12.3-74.1c-5.4-24.4-12.4-48.4-21.4-71.7c-9-23.2-20.2-45.6-34-66.3
			c-13.8-20.7-30.2-39.5-49.2-55.4l-5.3-4.4l6.6-2.2l0,0c20-6.4,39.2-15.3,56.9-26.6c17.7-11.3,33.9-25.1,48.3-40.5
			c14.4-15.4,27.2-32.4,38.5-50.3c11.3-17.9,21.2-36.7,30.1-56l4.1,3.1c-20,16.9-41.4,32.1-63.9,45.5
			c-22.5,13.4-46.2,24.8-70.6,34.2c-48.8,18.9-100.6,29.4-152.7,33.2c-52.1,3.8-104.5,1.1-156.2-6c-51.7-7.1-102.6-18.7-152.7-33
			l0.5-1.8c50.1,14.1,101,25.3,152.6,32.1c51.5,6.8,103.7,9.3,155.5,5.2c51.7-4.1,103.1-14.8,151.3-33.8
			c24.1-9.5,47.5-20.9,69.7-34.2c22.2-13.4,43.3-28.6,63-45.3l9-7.6l-4.8,10.8c-8.8,19.5-18.6,38.7-29.9,56.9
			c-11.3,18.3-24.1,35.7-38.7,51.6c-14.6,15.9-31,30.2-49.2,42c-18.1,11.9-37.9,21.3-58.4,28l0,0l1.3-6.7
			c19.6,16.4,36.6,35.8,50.8,57c14.2,21.2,25.5,44.2,34.7,67.9c9.2,23.7,16.1,48.2,21.5,72.9c5.4,24.7,9.2,49.8,12.1,74.9l1.4,12.7
			l-7.7-10.2c-14.3-18.9-29.2-37.2-45.2-54.7c-15.9-17.5-32.9-34.1-50.9-49.3c-18.1-15.2-37.4-29.1-57.8-41
			c-20.4-12-42-22-64.5-29.5L360.2,426.5z"/>
	</g>
	<circle class="st0" cx="356.7" cy="197.6" r="55.5"/>
</g>
</svg>
